<svg width="24" height="24" viewBox="0 0 24 24" fill="none" xmlns="http://www.w3.org/2000/svg"><path d="M2.714 6.464h18.572c.394 0 .714-.32.714-.714V3.964a.714.714 0 00-.714-.714H2.714A.714.714 0 002 3.964V5.75c0 .395.32.714.714.714zm0 7.143h18.572c.394 0 .714-.32.714-.714v-1.786a.714.714 0 00-.714-.714H2.714a.714.714 0 00-.714.714v1.786c0 .394.32.714.714.714zm0 7.143h18.572c.394 0 .714-.32.714-.714V18.25a.714.714 0 00-.714-.714H2.714A.714.714 0 002 18.25v1.786c0 .394.32.714.714.714z" fill="currentColor"/></svg>