<svg xmlns="http://www.w3.org/2000/svg" viewBox="0 0 11.96 11.96" height="45.203" width="45.203"><defs><clipPath id="a"><path d="M415.957 473.925h50.909v33.902h-50.909z"/></clipPath></defs><path d="M0 11.96h11.96V0H0z" fill="#2785cf"/><g clip-path="url(#a)" transform="matrix(.35278 0 0 -.35278 -147.24 179.15)"><path d="M426.493 486.236a5.782 5.782 0 01-1.835.274c-1.352 0-2.68-.626-2.68-2.34 0-2.538 3.361-1.934 3.361-3.396 0-.692-.78-.988-1.363-.988-.604 0-1.208.187-1.735.472l-.143-1.385c.758-.186 1.131-.296 1.966-.296 1.55 0 2.88.637 2.88 2.318 0 2.572-3.363 2.011-3.363 3.341 0 .835.681 1.066 1.21 1.066a3.97 3.97 0 001.56-.33l.142 1.264m3.427-7.527h1.989l1.362 6.131h.022l1.385-6.13h1.978l1.999 7.668h-1.494l-1.44-6.13h-.021l-1.352 6.13h-2.087l-1.308-6.13h-.023l-1.427 6.13h-1.616zm10.23 2.77c0-2.055 1.164-2.902 3.132-2.902 1.967 0 3.131.847 3.131 2.901v4.9h-1.538v-4.428c0-1.307-.417-2.164-1.593-2.164s-1.594.857-1.594 2.164v4.428h-1.538v-4.9" fill="#fff"/></g></svg>