<svg version="1.1" id="Layer_1" xmlns="http://www.w3.org/2000/svg" x="0" y="0" width="225.994" height="45.258" viewBox="0 0 225.994 45.258" xml:space="preserve"><g fill="#FFF"><path d="M28.993 18.11l22.685 5.632c3.948-1.541 6.318-3.505 6.318-5.632V9.052C57.996 4.058 45.011 0 28.993 0 12.979 0 0 4.058 0 9.052v9.058c0 4.995 12.979 9.05 28.993 9.05v-9.05z"/><path d="M51.676 32.796L28.993 27.16v9.051l22.683 5.638c3.95-1.549 6.322-3.504 6.322-5.638V27.16c.001 2.132-2.372 4.09-6.322 5.636"/><path d="M0 27.16v9.052c0 4.996 12.979 9.047 28.993 9.047v-9.047C12.979 36.211 0 32.155 0 27.16"/><path d="M82.884 35.384c-7.082 0-12.339-5.467-12.339-12.378v-.066c0-6.837 5.154-12.443 12.546-12.443 4.536 0 7.253 1.515 9.487 3.713l-3.368 3.882c-1.857-1.685-3.749-2.715-6.156-2.715-4.055 0-6.975 3.368-6.975 7.493v.069c0 4.124 2.849 7.562 6.975 7.562 2.751 0 4.435-1.1 6.324-2.82l3.367 3.402c-2.472 2.651-5.22 4.301-9.861 4.301"/><path d="M107.321 27.546c-.894-.416-2.064-.688-3.334-.688-2.234 0-3.611.894-3.611 2.544v.068c0 1.406 1.171 2.231 2.852 2.231 2.441 0 4.093-1.335 4.093-3.229v-.926zm-.106 7.422v-1.99c-1.269 1.408-3.021 2.337-5.568 2.337-3.469 0-6.323-1.994-6.323-5.637v-.069c0-4.023 3.056-5.879 7.422-5.879 1.859 0 3.2.312 4.506.756v-.311c0-2.162-1.342-3.368-3.955-3.368-1.993 0-3.4.379-5.086.997l-1.309-3.986c2.03-.896 4.023-1.479 7.15-1.479 5.708 0 8.216 2.957 8.216 7.943v10.686h-5.053z"/></g><path fill="#FFF" d="M128.629 34.968l-4.813-7.525-1.822 1.925v5.6h-5.222V9.876h5.222V23.25l6.121-6.703h6.255l-7.012 7.25 7.251 11.171z"/><g fill="#FFF"><path d="M144.469 20.396c-2.166 0-3.578 1.547-3.989 3.917h7.872c-.311-2.338-1.686-3.917-3.883-3.917m8.901 7.187h-12.819c.514 2.371 2.164 3.605 4.504 3.605 1.752 0 3.022-.552 4.465-1.89l2.994 2.647c-1.723 2.132-4.195 3.438-7.529 3.438-5.535 0-9.628-3.885-9.628-9.521v-.07c0-5.261 3.75-9.591 9.112-9.591 6.149 0 8.97 4.779 8.97 10.005v.065c-.001.521-.034.828-.069 1.312"/><path d="M171.551 19.329c0-2.371-1.647-3.641-4.296-3.641h-4.09v7.358h4.193c2.646 0 4.192-1.586 4.192-3.646v-.071zm-4.367 8.422h-4.019v7.217h-5.292v-24.06h9.83c5.738 0 9.209 3.403 9.209 8.321v.065c0 5.57-4.332 8.457-9.728 8.457"/></g><path fill="#FFF" d="M195.885 34.968v-9.661h-9.763v9.661h-5.291v-24.06h5.291v9.522h9.763v-9.522h5.291v24.06z"/><path fill="#FFF" d="M220.63 19.329c0-2.371-1.65-3.641-4.295-3.641h-4.091v7.358h4.191c2.649 0 4.194-1.586 4.194-3.646v-.071zm-4.362 8.422h-4.023v7.217h-5.292v-24.06h9.829c5.737 0 9.213 3.403 9.213 8.321v.065c-.001 5.57-4.333 8.457-9.727 8.457"/></svg>