<svg width="120" height="120" viewBox="0 0 120 120" fill="none" xmlns="http://www.w3.org/2000/svg"><path d="M54.95 2.915a10.099 10.099 0 0110.1 0l41.862 24.17a10.099 10.099 0 015.05 8.746v48.338c0 3.608-1.925 6.942-5.05 8.746l-41.863 24.17a10.1 10.1 0 01-10.099 0l-41.862-24.17a10.099 10.099 0 01-5.05-8.746V35.831c0-3.608 1.925-6.942 5.05-8.746L54.95 2.915z" fill="var(--primary-color, #8D6BE9)"/><path d="M69.526 88.722c-4.234 7.334-14.818 7.334-19.052 0L30.362 53.89c-4.233-7.334 1.059-16.5 9.527-16.5H80.11c8.468 0 13.76 9.166 9.526 16.5l-20.11 34.833z" fill="var(--contrast-color, #fff)"/></svg>