<svg width="120" height="120" viewBox="0 0 120 120" fill="none" xmlns="http://www.w3.org/2000/svg">
<path d="M54.9505 2.91536C58.0751 1.11135 61.9249 1.11135 65.0495 2.91536L106.912 27.0847C110.037 28.8887 111.962 32.2227 111.962 35.8307V84.1694C111.962 87.7774 110.037 91.1114 106.912 92.9154L65.0495 117.085C61.9249 118.889 58.0751 118.889 54.9505 117.085L13.088 92.9154C9.96333 91.1114 8.03848 87.7774 8.03848 84.1694L8.03848 35.8307C8.03848 32.2227 9.96334 28.8887 13.088 27.0847L54.9505 2.91536Z" fill="var(--primary-color, #8D6BE9)"/>
<path d="M69.5262 88.7225C65.2923 96.0558 54.7076 96.0558 50.4737 88.7225L30.3624 53.8888C26.1285 46.5554 31.4209 37.3888 39.8887 37.3888L80.1112 37.3888C88.579 37.3888 93.8714 46.5555 89.6375 53.8888L69.5262 88.7225Z" fill="var(--contrast-color, #fff)"/>
</svg>
