<svg width="335" height="90" viewBox="0 0 335 90" fill="none" xmlns="http://www.w3.org/2000/svg">
<path d="M41.2129 2.1865C43.5564 0.83349 46.4436 0.833489 48.7871 2.1865L80.184 20.3135C82.5275 21.6665 83.9711 24.167 83.9711 26.873V63.127C83.9711 65.833 82.5275 68.3335 80.184 69.6865L48.7871 87.8135C46.4436 89.1665 43.5564 89.1665 41.2129 87.8135L9.81599 69.6865C7.47251 68.3335 6.02886 65.833 6.02886 63.127L6.02886 26.873C6.02886 24.167 7.4725 21.6665 9.81599 20.3135L41.2129 2.1865Z" fill="var(--primary-color, #8D6BE9)" />
<path d="M52.1447 66.5418C48.9692 72.0418 41.0307 72.0418 37.8552 66.5418L22.7718 40.4165C19.5964 34.9165 23.5657 28.0415 29.9165 28.0415L60.0834 28.0415C66.4342 28.0415 70.4035 34.9165 67.2281 40.4165L52.1447 66.5418Z" fill="var(--contrast-color, #fff)"/>
<path d="M127.951 35.8248H138.586C138.496 27.2313 131.653 21.42 120.973 21.42C110.472 21.42 102.911 27.1415 102.978 35.6902C102.956 42.6682 107.847 46.5947 115.79 48.4122L120.591 49.534C125.64 50.7008 127.906 52.0695 127.951 54.6498C127.906 57.4544 125.281 59.4065 120.816 59.4065C115.902 59.4065 112.671 57.1179 112.424 52.6977H101.789C101.924 63.4452 109.395 68.5834 120.95 68.5834C132.393 68.5834 139.17 63.4003 139.214 54.6722C139.17 47.3352 134.211 42.8477 125.146 40.8508L121.197 39.9533C117.024 39.0558 114.376 37.6647 114.466 34.9273C114.488 32.4143 116.642 30.5969 120.95 30.5969C125.281 30.5969 127.659 32.5489 127.951 35.8248ZM155.796 48.3449C155.818 44.4183 158.152 42.0848 161.629 42.0848C165.152 42.0848 167.194 44.351 167.171 48.1878V68H178.143V46.0338C178.166 38.2256 173.409 33.0874 166.162 33.0874C161.001 33.0874 157.366 35.6229 155.818 39.8635H155.437V22.0482H144.824V68H155.796V48.3449ZM194.708 68.5834C199.509 68.5834 202.83 66.7211 204.715 63.1984H204.984V68H215.305V44.5754C215.305 37.2832 208.821 33.0874 200.048 33.0874C190.781 33.0874 185.531 37.7544 184.656 44.0369L194.775 44.3959C195.246 42.197 197.064 40.8508 199.958 40.8508C202.651 40.8508 204.356 42.1521 204.356 44.4632V44.5754C204.356 46.6845 202.067 47.1332 196.189 47.6493C189.211 48.2327 183.377 50.813 183.377 58.4417C183.377 65.2626 188.111 68.5834 194.708 68.5834ZM198.096 61.4034C195.56 61.4034 193.765 60.1918 193.765 57.9032C193.765 55.6819 195.515 54.3356 198.634 53.8644C200.676 53.5728 203.189 53.124 204.423 52.4733V55.7492C204.423 59.1148 201.596 61.4034 198.096 61.4034ZM222.014 80.9239H232.986V62.4131H233.21C234.601 65.5992 237.698 68.4936 242.903 68.4936C250.532 68.4936 256.68 62.5253 256.68 50.7905C256.68 38.6295 250.173 33.0874 242.971 33.0874C237.518 33.0874 234.534 36.2735 233.21 39.4372H232.874V33.5362H222.014V80.9239ZM232.761 50.7681C232.761 45.1363 235.095 41.6585 239.111 41.6585C243.172 41.6585 245.416 45.2261 245.416 50.7681C245.416 56.3326 243.172 59.945 239.111 59.945C235.095 59.945 232.761 56.355 232.761 50.7681ZM278.539 68.6507C287.582 68.6507 293.528 64.2754 294.784 57.4993L284.71 57.2076C283.857 59.4962 281.613 60.7303 278.741 60.7303C274.523 60.7303 271.92 57.9256 271.92 53.7074V53.4157H294.896V50.6783C294.896 39.325 287.986 33.0874 278.203 33.0874C267.792 33.0874 261.106 40.2225 261.106 50.9027C261.106 61.9419 267.702 68.6507 278.539 68.6507ZM271.92 47.0435C272.077 43.6106 274.792 41.0078 278.427 41.0078C282.04 41.0078 284.642 43.5208 284.687 47.0435H271.92ZM330.588 44.0593C330.005 37.2383 324.418 33.0874 315.084 33.0874C305.75 33.0874 299.804 37.1486 299.849 44.0593C299.804 49.3545 303.192 52.765 310.081 54.0439L316.094 55.1883C318.943 55.7492 320.245 56.6467 320.29 58.1724C320.245 59.9001 318.315 61.0444 315.511 61.0444C312.392 61.0444 310.283 59.6982 309.811 57.1852L298.974 57.4544C299.76 64.2754 305.616 68.6507 315.466 68.6507C324.687 68.6507 331.396 64.051 331.441 56.9608C331.396 51.9348 328.075 48.9507 321.21 47.6269L314.568 46.3704C311.651 45.787 310.709 44.7549 310.731 43.4311C310.709 41.6809 312.751 40.604 315.286 40.604C318.181 40.604 320.2 42.1521 320.514 44.3286L330.588 44.0593Z" fill="currentColor"/>
</svg>
