<svg xmlns="http://www.w3.org/2000/svg" viewBox="0 0 11.95987 11.95987" height="45.20267" width="45.20267">
  <defs>
    <clipPath id="a">
      <path d="M415.957 473.925h50.909v33.902h-50.909z"/>
    </clipPath>
  </defs>
  <path d="M0 11.95988h11.95987V0H0z" fill="#2785cf"/>
  <g clip-path="url(#a)" transform="matrix(.35278 0 0 -.35278 -147.24027 179.15008)">
    <path d="M426.4931 486.236c-.56.187-1.176.274-1.835.274-1.352 0-2.681-.626-2.681-2.34 0-2.538 3.362-1.934 3.362-3.396 0-.692-.78-.988-1.363-.988-.604 0-1.208.187-1.735.472l-.143-1.385c.758-.186 1.131-.296 1.966-.296 1.55 0 2.88.637 2.88 2.318 0 2.572-3.363 2.011-3.363 3.341 0 .835.681 1.066 1.209 1.066.539 0 1.077-.121 1.561-.33l.142 1.264m3.4267-7.5267h1.989l1.362 6.131h.022l1.385-6.131h1.978l1.999 7.669h-1.494l-1.439-6.131h-.022l-1.352 6.131h-2.087l-1.308-6.131h-.023l-1.427 6.131h-1.616zm10.2302 2.7688c0-2.054 1.164-2.901 3.132-2.901 1.967 0 3.131.847 3.131 2.901v4.9h-1.538v-4.428c0-1.307-.417-2.164-1.593-2.164s-1.594.857-1.594 2.164v4.428h-1.538v-4.9" fill="#fff"/>
  </g>
</svg>
