<svg width="335" height="90" viewBox="0 0 335 90" fill="none" xmlns="http://www.w3.org/2000/svg"><path d="M41.213 2.187a7.574 7.574 0 017.574 0l31.397 18.127a7.574 7.574 0 013.787 6.559v36.254a7.574 7.574 0 01-3.787 6.56L48.787 87.813a7.574 7.574 0 01-7.574 0L9.816 69.687a7.574 7.574 0 01-3.787-6.56V26.873a7.574 7.574 0 013.787-6.56L41.213 2.187z" fill="var(--primary-color, #8D6BE9)"/><path d="M52.145 66.542c-3.176 5.5-11.114 5.5-14.29 0L22.772 40.416c-3.176-5.5.794-12.374 7.145-12.374h30.166c6.351 0 10.32 6.874 7.145 12.374L52.145 66.543z" fill="var(--contrast-color, #fff)"/><path d="M127.951 35.825h10.635c-.09-8.594-6.933-14.405-17.613-14.405-10.501 0-18.062 5.721-17.995 14.27-.022 6.978 4.869 10.905 12.812 12.722l4.801 1.122c5.049 1.167 7.315 2.535 7.36 5.116-.045 2.804-2.67 4.757-7.135 4.757-4.914 0-8.145-2.29-8.392-6.71h-10.635c.135 10.748 7.606 15.886 19.161 15.886 11.443 0 18.22-5.183 18.264-13.91-.044-7.338-5.003-11.825-14.068-13.822l-3.949-.898c-4.173-.897-6.821-2.288-6.731-5.026.022-2.513 2.176-4.33 6.484-4.33 4.331 0 6.709 1.952 7.001 5.228zm27.845 12.52c.022-3.927 2.356-6.26 5.833-6.26 3.523 0 5.565 2.266 5.542 6.103V68h10.972V46.034c.023-7.808-4.734-12.947-11.981-12.947-5.161 0-8.796 2.536-10.344 6.776h-.381V22.049h-10.613V68h10.972V48.345zm38.912 20.238c4.801 0 8.122-1.862 10.007-5.385h.269V68h10.321V44.575c0-7.292-6.484-11.488-15.257-11.488-9.267 0-14.517 4.667-15.392 10.95l10.119.359c.471-2.199 2.289-3.545 5.183-3.545 2.693 0 4.398 1.301 4.398 3.612v.112c0 2.11-2.289 2.558-8.167 3.074-6.978.584-12.812 3.164-12.812 10.793 0 6.82 4.734 10.141 11.331 10.141zm3.388-7.18c-2.536 0-4.331-1.211-4.331-3.5 0-2.221 1.75-3.567 4.869-4.039 2.042-.291 4.555-.74 5.789-1.39v3.275c0 3.366-2.827 5.654-6.327 5.654zm23.918 19.52h10.972v-18.51h.224c1.391 3.186 4.488 6.08 9.693 6.08 7.629 0 13.777-5.968 13.777-17.702 0-12.161-6.507-17.704-13.709-17.704-5.453 0-8.437 3.186-9.761 6.35h-.336v-5.9h-10.86v47.387zm10.747-30.155c0-5.632 2.334-9.11 6.35-9.11 4.061 0 6.305 3.568 6.305 9.11 0 5.565-2.244 9.177-6.305 9.177-4.016 0-6.35-3.59-6.35-9.177zm45.778 17.883c9.043 0 14.989-4.376 16.245-11.152l-10.074-.291c-.853 2.288-3.097 3.522-5.969 3.522-4.218 0-6.821-2.804-6.821-7.023v-.291h22.976v-2.738c0-11.353-6.91-17.59-16.693-17.59-10.411 0-17.097 7.134-17.097 17.815 0 11.039 6.596 17.748 17.433 17.748zm-6.619-21.607c.157-3.433 2.872-6.036 6.507-6.036 3.613 0 6.215 2.513 6.26 6.035H271.92zm58.668-2.985c-.583-6.82-6.17-10.972-15.504-10.972s-15.28 4.062-15.235 10.972c-.045 5.296 3.343 8.706 10.232 9.985l6.013 1.144c2.849.561 4.151 1.459 4.196 2.984-.045 1.728-1.975 2.872-4.779 2.872-3.119 0-5.228-1.346-5.7-3.859l-10.837.27c.786 6.82 6.642 11.196 16.492 11.196 9.221 0 15.93-4.6 15.975-11.69-.045-5.026-3.366-8.01-10.231-9.334l-6.642-1.257c-2.917-.583-3.859-1.615-3.837-2.939-.022-1.75 2.02-2.827 4.555-2.827 2.895 0 4.914 1.548 5.228 3.725l10.074-.27z" fill="currentColor"/></svg>